<svg width="16" height="15" viewBox="0 0 16 15" fill="none" xmlns="http://www.w3.org/2000/svg">
<path d="M14.461 12.832C12.708 14.1255 10.1705 14.813 7.98296 14.813C4.91746 14.813 2.15796 13.682 0.0704561 11.794C-0.0920439 11.647 0.0514561 11.444 0.248456 11.5595C2.50146 12.872 5.28896 13.6595 8.16746 13.6595C10.108 13.6595 12.2425 13.2565 14.208 12.422C14.5015 12.297 14.7515 12.6195 14.461 12.832Z" fill="white"/>
<path d="M15.1892 12.0005C14.9642 11.713 13.7082 11.863 13.1422 11.932C12.9702 11.951 12.9452 11.804 13.0987 11.6945C14.1017 10.9915 15.7457 11.1945 15.9362 11.429C16.1297 11.6665 15.8862 13.3135 14.9457 14.101C14.8017 14.223 14.6642 14.1575 14.7267 13.998C14.9422 13.47 15.4142 12.288 15.1892 12.0005Z" fill="white"/>
<path d="M11.0516 10.838L11.0546 10.841C11.4421 10.5005 12.1391 9.891 12.5326 9.563C12.6891 9.438 12.6606 9.2285 12.5386 9.0535C12.1856 8.566 11.8106 8.169 11.8106 7.269V4.269C11.8106 2.997 11.8981 1.8315 10.9636 0.9565C10.2261 0.25 9.00115 0 8.06365 0C6.23265 0 4.18865 0.6845 3.76065 2.947C3.71365 3.1875 3.89215 3.316 4.04815 3.35L5.91365 3.553C6.08865 3.5435 6.21365 3.3715 6.24815 3.1965C6.40765 2.4185 7.06065 2.04 7.79515 2.04C8.19215 2.04 8.64215 2.1835 8.87665 2.54C9.14565 2.937 9.11115 3.4775 9.11115 3.937V4.187C7.99565 4.312 6.53615 4.393 5.49215 4.8525C4.28615 5.3745 3.43915 6.437 3.43915 7.9995C3.43915 9.9995 4.69865 10.9995 6.32065 10.9995C7.68965 10.9995 8.43615 10.6775 9.49265 9.5965C9.84265 10.1025 9.95515 10.3495 10.5956 10.881C10.7426 10.959 10.9236 10.953 11.0521 10.8375L11.0516 10.838ZM9.11115 6.144C9.11115 6.894 9.13015 7.519 8.75165 8.1845C8.44515 8.728 7.96115 9.0595 7.42065 9.0595C6.68315 9.0595 6.25165 8.497 6.25165 7.6655C6.25165 6.025 7.72365 5.728 9.11415 5.728V6.1435L9.11115 6.144Z" fill="white"/>
</svg>
